PathFileType	4	(X/Y/Z)	21_coords_data.trc
DataRate	CameraRate	NumFrames	NumMarkers	Units	OrigDataRate	OrigDataStartFrame	OrigNumFrames
30.0	30.0	5	21	m	30.0	1	60
Frame#	Time	THUMB_TIP	THUMB_IP	THUMB_MCP	THUMB_CMC	INDEX_TIP	INDEX_DIP	INDEX_PIP	INDEX_MCP	MIDDLE_TIP	MIDDLE_DIP	MIDDLE_PIP	MIDDLE_MCP	RING_TIP	RING_DIP	RING_PIP	RING_MCP	PINKY_TIP	PINKY_DIP	PINKY_PIP	PINKY_MCP	WRIST
X1	Y1	Z1	X2	Y2	Z2	X3	Y3	Z3	X4	Y4	Z4	X5	Y5	Z5	X6	Y6	Z6	X7	Y7	Z7	X8	Y8	Z8	X9	Y9	Z9	X10	Y10	Z10	X11	Y11	Z11	X12	Y12	Z12	X13	Y13	Z13	X14	Y14	Z14	X15	Y15	Z15	X16	Y16	Z16	X17	Y17	Z17	X18	Y18	Z18	X19	Y19	Z19	X20	Y20	Z20	X21	Y21	Z21
0	0.0	-0.048118301391601566	-0.03569240188598633	0.90872900390625	-0.04667169952392578	-0.01280679988861084	0.92847900390625	-0.049479698181152346	0.009829469680786133	0.9539310302734375	-0.053553398132324216	0.03885060119628906	0.975385986328125	-0.03861859893798828	0.04256349945068359	0.94743798828125	-0.018981300354003906	0.043518600463867185	0.9367509765625	-0.012840999603271484	0.04024530029296875	0.9152999877929687	-0.057550098419189455	0.036076400756835936	0.913822021484375	-0.030714799880981445	0.0562697982788086	0.9480479736328125	-0.025909500122070314	0.05964910125732422	0.9433720092773438	-0.014663800239562989	0.06076850128173828	0.9174039916992187	-0.06062210083007812	0.06005099868774414	0.9127470092773438	-0.04233750152587891	0.06915989685058593	0.9569860229492188	-0.027206199645996094	0.07370899963378906	0.9435020141601562	-0.017637100219726563	0.07784130096435547	0.9192069702148438	-0.05950609970092773	0.08094860076904296	0.9192540283203126	-0.03455099868774414	0.08756089782714843	0.9461849975585938	-0.018800899505615233	0.08941899871826171	0.9390050048828125	-0.020810100555419923	0.09550340270996094	0.9221489868164062	-0.05406230163574219	0.09682140350341797	0.9274550170898438	-0.08024680328369141	0.06342940139770507	0.9980130004882812
1	0.03333333333333333	-0.048620098114013674	-0.03476810073852539	0.9085330200195313	-0.04708539962768555	-0.012181599617004395	0.92822900390625	-0.047938701629638675	0.009105759620666504	0.952083984375	-0.05278350067138672	0.039733600616455075	0.9741890258789062	-0.0386172981262207	0.04075189971923828	0.9453740234375	-0.020789600372314452	0.042959800720214845	0.937801025390625	-0.013672300338745117	0.04047650146484375	0.9143800048828125	-0.056867401123046876	0.036164600372314455	0.9139340209960938	-0.03061429977416992	0.05592369842529297	0.9466170043945312	-0.024507200241088867	0.0593120002746582	0.9429710083007813	-0.01442549991607666	0.06098109817504883	0.9171420288085937	-0.059985599517822265	0.05983629989624024	0.9127130126953125	-0.03931159973144531	0.06977310180664062	0.9526920166015626	-0.02576880073547363	0.07441500091552734	0.943198974609375	-0.017285999298095704	0.07905429840087891	0.9189639892578125	-0.05984999847412109	0.08091159820556641	0.9191309814453125	-0.03505749893188476	0.08591819763183593	0.9486400146484375	-0.020902099609375	0.08969599914550781	0.9392570190429688	-0.022030799865722657	0.09552619934082031	0.9234089965820312	-0.05466680145263672	0.0970875015258789	0.9290020141601563	-0.08136309814453126	0.06069480133056641	0.9979110107421875
2	0.06666666666666667	-0.048595100402832034	-0.034585800170898434	0.9086019897460937	-0.04705569839477539	-0.011969900131225586	0.9282570190429688	-0.04793389892578125	0.009290390014648438	0.9521060180664063	-0.052843101501464845	0.03986399841308594	0.974208984375	-0.03847159957885742	0.04091859817504883	0.9454539794921875	-0.020875600814819335	0.04313150024414063	0.9377979736328125	-0.013633899688720703	0.04073720169067383	0.9145670166015625	-0.0568849983215332	0.03639410018920899	0.9140809936523437	-0.03091320037841797	0.05597100067138672	0.9471409912109375	-0.024521900177001954	0.059584800720214846	0.9430900268554687	-0.014428299903869629	0.0612135009765625	0.9170819702148437	-0.060000598907470705	0.060035400390625	0.9128740234375	-0.039289901733398434	0.06996150207519532	0.952885009765625	-0.02580419921875	0.07460040283203125	0.94322802734375	-0.017293399810791015	0.07929879760742188	0.9190009765625	-0.05987979888916015	0.08114669799804687	0.9193189697265625	-0.03495899963378906	0.08628389739990235	0.948489013671875	-0.020948200225830077	0.089875	0.9392960205078125	-0.022078199386596678	0.09573500061035156	0.9233820190429688	-0.05469710159301758	0.09728469848632812	0.9291339721679688	-0.08122260284423828	0.06115240097045899	0.9979530029296875
3	0.1	-0.04850400161743164	-0.03443450164794922	0.9085549926757812	-0.047025798797607425	-0.011866399765014649	0.9282490234375	-0.04796310043334961	0.00939542007446289	0.9521119995117188	-0.05285300064086914	0.039953399658203125	0.9742050170898438	-0.038688301086425785	0.04102069854736328	0.945447021484375	-0.02088170051574707	0.04325299835205078	0.9379390258789062	-0.01369279956817627	0.04082170104980469	0.9144929809570312	-0.05687639999389649	0.03648910140991211	0.9140989990234375	-0.030812400817871094	0.05605659866333008	0.9471190185546875	-0.02442399978637695	0.05960639953613281	0.943031005859375	-0.01440190029144287	0.061293800354003905	0.9172750244140625	-0.060250099182128904	0.06021310043334961	0.91293798828125	-0.03958489990234375	0.06996240234375	0.9530430297851562	-0.025801599502563475	0.0747123031616211	0.9433590087890625	-0.017321500778198242	0.07939510345458985	0.919093994140625	-0.059925300598144535	0.08125769805908203	0.9193800048828125	-0.03506990051269531	0.08592340087890625	0.948822021484375	-0.02091620063781738	0.08997389984130859	0.9393720092773438	-0.022065099716186524	0.09583599853515624	0.92352197265625	-0.054742599487304686	0.09733580017089843	0.9290549926757813	-0.08134809875488282	0.061068000793457033	0.9980590209960938
4	0.13333333333333333	-0.04836669921875	-0.0342671012878418	0.9085130004882812	-0.04691460037231445	-0.011725099563598632	0.9282160034179687	-0.047866500854492185	0.009518110275268554	0.9521019897460937	-0.05284130096435547	0.04008039855957031	0.9741840209960938	-0.03877909851074219	0.041032798767089845	0.945280029296875	-0.020866100311279296	0.04334709930419922	0.9377100219726563	-0.013748100280761719	0.040927700042724606	0.9144290161132812	-0.05692259979248047	0.03666619873046875	0.9141719970703125	-0.030662399291992187	0.05624739837646484	0.946625	-0.02454159927368164	0.05967010116577148	0.9430579833984375	-0.014336799621582031	0.06139929962158203	0.9172999877929687	-0.06007089996337891	0.06030580139160156	0.9129169921875	-0.039390098571777346	0.07005740356445313	0.9526680297851563	-0.025765199661254883	0.07476229858398438	0.943322021484375	-0.017341800689697266	0.07949340057373047	0.9190900268554687	-0.05996089935302734	0.08137830352783203	0.9194010009765625	-0.03528519821166992	0.08628459930419922	0.948572998046875	-0.021018999099731445	0.09002839660644531	0.9394580078125	-0.022071699142456054	0.09592960357666015	0.9235280151367188	-0.05472359848022461	0.09747979736328125	0.9290999755859375	-0.08124099731445313	0.06107170104980469	0.998197998046875
